<mxfile host="65bd71144e">
    <diagram id="hyLqfFfreGTfDCUPsIdt" name="Page-1">
        <mxGraphModel dx="1204" dy="630" grid="1" gridSize="10" guides="1" tooltips="1" connect="1" arrows="1" fold="1" page="1" pageScale="1" pageWidth="827" pageHeight="1169" math="0" shadow="0">
            <root>
                <mxCell id="0"/>
                <mxCell id="1" parent="0"/>
                <mxCell id="2" value="" style="rounded=0;whiteSpace=wrap;html=1;" parent="1" vertex="1">
                    <mxGeometry width="820" height="40" as="geometry"/>
                </mxCell>
                <mxCell id="3" value="" style="rounded=1;whiteSpace=wrap;html=1;" parent="1" vertex="1">
                    <mxGeometry x="630" y="10" width="60" height="20" as="geometry"/>
                </mxCell>
                <mxCell id="4" value="" style="rounded=1;whiteSpace=wrap;html=1;" parent="1" vertex="1">
                    <mxGeometry x="710" y="10" width="60" height="20" as="geometry"/>
                </mxCell>
                <mxCell id="5" value="LOGO HERE" style="text;html=1;strokeColor=none;fillColor=none;align=center;verticalAlign=middle;whiteSpace=wrap;rounded=0;" parent="1" vertex="1">
                    <mxGeometry x="60" y="5" width="90" height="30" as="geometry"/>
                </mxCell>
                <mxCell id="6" value="Current Auction Title" style="text;strokeColor=none;fillColor=none;html=1;fontSize=24;fontStyle=1;verticalAlign=middle;align=center;" parent="1" vertex="1">
                    <mxGeometry x="364" y="65" width="100" height="40" as="geometry"/>
                </mxCell>
                <mxCell id="7" value="" style="whiteSpace=wrap;html=1;aspect=fixed;" parent="1" vertex="1">
                    <mxGeometry x="83" y="122" width="40" height="40" as="geometry"/>
                </mxCell>
                <mxCell id="8" value="Image" style="text;html=1;strokeColor=none;fillColor=none;align=center;verticalAlign=middle;whiteSpace=wrap;rounded=0;" parent="1" vertex="1">
                    <mxGeometry x="73" y="128" width="60" height="30" as="geometry"/>
                </mxCell>
                <mxCell id="9" value="Item Name" style="text;html=1;strokeColor=none;fillColor=none;align=center;verticalAlign=middle;whiteSpace=wrap;rounded=0;" parent="1" vertex="1">
                    <mxGeometry x="123" y="122" width="100" height="20" as="geometry"/>
                </mxCell>
                <mxCell id="10" value="Item description" style="text;html=1;strokeColor=none;fillColor=none;align=left;verticalAlign=middle;whiteSpace=wrap;rounded=0;" parent="1" vertex="1">
                    <mxGeometry x="143" y="142" width="350" height="20" as="geometry"/>
                </mxCell>
                <mxCell id="11" value="Start Bid&lt;br&gt;$X.xx" style="text;html=1;strokeColor=none;fillColor=none;align=center;verticalAlign=middle;whiteSpace=wrap;rounded=0;" parent="1" vertex="1">
                    <mxGeometry x="363" y="128" width="60" height="30" as="geometry"/>
                </mxCell>
                <mxCell id="12" value="# bids" style="text;html=1;strokeColor=none;fillColor=none;align=center;verticalAlign=middle;whiteSpace=wrap;rounded=0;" parent="1" vertex="1">
                    <mxGeometry x="432" y="132" width="60" height="30" as="geometry"/>
                </mxCell>
                <mxCell id="13" value="Link to product" style="text;html=1;strokeColor=none;fillColor=none;align=center;verticalAlign=middle;whiteSpace=wrap;rounded=0;" parent="1" vertex="1">
                    <mxGeometry x="495" y="131" width="90" height="30" as="geometry"/>
                </mxCell>
                <mxCell id="14" value="" style="rounded=0;whiteSpace=wrap;html=1;" parent="1" vertex="1">
                    <mxGeometry x="605" y="128" width="60" height="30" as="geometry"/>
                </mxCell>
                <mxCell id="15" value="Bid Amount" style="text;html=1;strokeColor=none;fillColor=none;align=center;verticalAlign=middle;whiteSpace=wrap;rounded=0;fontSize=10;" parent="1" vertex="1">
                    <mxGeometry x="597" y="128" width="80" height="30" as="geometry"/>
                </mxCell>
                <mxCell id="16" value="Place Bid" style="rounded=1;whiteSpace=wrap;html=1;fontSize=10;" parent="1" vertex="1">
                    <mxGeometry x="683" y="131" width="70" height="24" as="geometry"/>
                </mxCell>
                <mxCell id="29" value="" style="group" parent="1" vertex="1" connectable="0">
                    <mxGeometry x="72" y="248" width="681" height="54" as="geometry"/>
                </mxCell>
                <mxCell id="18" value="" style="whiteSpace=wrap;html=1;aspect=fixed;" parent="29" vertex="1">
                    <mxGeometry x="10" y="14" width="40" height="40" as="geometry"/>
                </mxCell>
                <mxCell id="19" value="Image" style="text;html=1;strokeColor=none;fillColor=none;align=center;verticalAlign=middle;whiteSpace=wrap;rounded=0;" parent="29" vertex="1">
                    <mxGeometry y="20" width="60" height="30" as="geometry"/>
                </mxCell>
                <mxCell id="20" value="Item Name" style="text;html=1;strokeColor=none;fillColor=none;align=center;verticalAlign=middle;whiteSpace=wrap;rounded=0;" parent="29" vertex="1">
                    <mxGeometry x="50" y="14" width="100" height="20" as="geometry"/>
                </mxCell>
                <mxCell id="21" value="Item description" style="text;html=1;strokeColor=none;fillColor=none;align=left;verticalAlign=middle;whiteSpace=wrap;rounded=0;" parent="29" vertex="1">
                    <mxGeometry x="70" y="34" width="350" height="20" as="geometry"/>
                </mxCell>
                <mxCell id="22" value="Start Bid&lt;br&gt;$X.xx" style="text;html=1;strokeColor=none;fillColor=none;align=center;verticalAlign=middle;whiteSpace=wrap;rounded=0;" parent="29" vertex="1">
                    <mxGeometry x="290" y="20" width="60" height="30" as="geometry"/>
                </mxCell>
                <mxCell id="23" value="# bids" style="text;html=1;strokeColor=none;fillColor=none;align=center;verticalAlign=middle;whiteSpace=wrap;rounded=0;" parent="29" vertex="1">
                    <mxGeometry x="359" y="24" width="60" height="30" as="geometry"/>
                </mxCell>
                <mxCell id="24" value="Link to product" style="text;html=1;strokeColor=none;fillColor=none;align=center;verticalAlign=middle;whiteSpace=wrap;rounded=0;" parent="29" vertex="1">
                    <mxGeometry x="422" y="23" width="90" height="30" as="geometry"/>
                </mxCell>
                <mxCell id="25" value="" style="rounded=0;whiteSpace=wrap;html=1;" parent="29" vertex="1">
                    <mxGeometry x="532" y="20" width="60" height="30" as="geometry"/>
                </mxCell>
                <mxCell id="26" value="Bid Amount" style="text;html=1;strokeColor=none;fillColor=none;align=center;verticalAlign=middle;whiteSpace=wrap;rounded=0;fontSize=10;" parent="29" vertex="1">
                    <mxGeometry x="524" y="20" width="80" height="30" as="geometry"/>
                </mxCell>
                <mxCell id="27" value="Place Bid" style="rounded=1;whiteSpace=wrap;html=1;fontSize=10;" parent="29" vertex="1">
                    <mxGeometry x="610" y="23" width="70" height="24" as="geometry"/>
                </mxCell>
                <mxCell id="28" value="" style="endArrow=none;html=1;fontSize=10;" parent="29" edge="1">
                    <mxGeometry width="50" height="50" relative="1" as="geometry">
                        <mxPoint x="11" as="sourcePoint"/>
                        <mxPoint x="681" as="targetPoint"/>
                    </mxGeometry>
                </mxCell>
                <mxCell id="30" value="" style="group" parent="1" vertex="1" connectable="0">
                    <mxGeometry x="72" y="318" width="681" height="54" as="geometry"/>
                </mxCell>
                <mxCell id="31" value="" style="whiteSpace=wrap;html=1;aspect=fixed;" parent="30" vertex="1">
                    <mxGeometry x="10" y="14" width="40" height="40" as="geometry"/>
                </mxCell>
                <mxCell id="32" value="Image" style="text;html=1;strokeColor=none;fillColor=none;align=center;verticalAlign=middle;whiteSpace=wrap;rounded=0;" parent="30" vertex="1">
                    <mxGeometry y="20" width="60" height="30" as="geometry"/>
                </mxCell>
                <mxCell id="33" value="Item Name" style="text;html=1;strokeColor=none;fillColor=none;align=center;verticalAlign=middle;whiteSpace=wrap;rounded=0;" parent="30" vertex="1">
                    <mxGeometry x="50" y="14" width="100" height="20" as="geometry"/>
                </mxCell>
                <mxCell id="34" value="Item description" style="text;html=1;strokeColor=none;fillColor=none;align=left;verticalAlign=middle;whiteSpace=wrap;rounded=0;" parent="30" vertex="1">
                    <mxGeometry x="70" y="34" width="350" height="20" as="geometry"/>
                </mxCell>
                <mxCell id="35" value="Start Bid&lt;br&gt;$X.xx" style="text;html=1;strokeColor=none;fillColor=none;align=center;verticalAlign=middle;whiteSpace=wrap;rounded=0;" parent="30" vertex="1">
                    <mxGeometry x="290" y="20" width="60" height="30" as="geometry"/>
                </mxCell>
                <mxCell id="36" value="# bids" style="text;html=1;strokeColor=none;fillColor=none;align=center;verticalAlign=middle;whiteSpace=wrap;rounded=0;" parent="30" vertex="1">
                    <mxGeometry x="359" y="24" width="60" height="30" as="geometry"/>
                </mxCell>
                <mxCell id="37" value="Link to product" style="text;html=1;strokeColor=none;fillColor=none;align=center;verticalAlign=middle;whiteSpace=wrap;rounded=0;" parent="30" vertex="1">
                    <mxGeometry x="422" y="23" width="90" height="30" as="geometry"/>
                </mxCell>
                <mxCell id="38" value="" style="rounded=0;whiteSpace=wrap;html=1;" parent="30" vertex="1">
                    <mxGeometry x="532" y="20" width="60" height="30" as="geometry"/>
                </mxCell>
                <mxCell id="39" value="Bid Amount" style="text;html=1;strokeColor=none;fillColor=none;align=center;verticalAlign=middle;whiteSpace=wrap;rounded=0;fontSize=10;" parent="30" vertex="1">
                    <mxGeometry x="524" y="20" width="80" height="30" as="geometry"/>
                </mxCell>
                <mxCell id="40" value="Place Bid" style="rounded=1;whiteSpace=wrap;html=1;fontSize=10;" parent="30" vertex="1">
                    <mxGeometry x="610" y="23" width="70" height="24" as="geometry"/>
                </mxCell>
                <mxCell id="41" value="" style="endArrow=none;html=1;fontSize=10;" parent="30" edge="1">
                    <mxGeometry width="50" height="50" relative="1" as="geometry">
                        <mxPoint x="11" as="sourcePoint"/>
                        <mxPoint x="681" as="targetPoint"/>
                    </mxGeometry>
                </mxCell>
                <mxCell id="42" value="" style="group" parent="1" vertex="1" connectable="0">
                    <mxGeometry x="73" y="178" width="681" height="54" as="geometry"/>
                </mxCell>
                <mxCell id="43" value="" style="whiteSpace=wrap;html=1;aspect=fixed;" parent="42" vertex="1">
                    <mxGeometry x="10" y="14" width="40" height="40" as="geometry"/>
                </mxCell>
                <mxCell id="44" value="Image" style="text;html=1;strokeColor=none;fillColor=none;align=center;verticalAlign=middle;whiteSpace=wrap;rounded=0;" parent="42" vertex="1">
                    <mxGeometry y="20" width="60" height="30" as="geometry"/>
                </mxCell>
                <mxCell id="45" value="Item Name" style="text;html=1;strokeColor=none;fillColor=none;align=center;verticalAlign=middle;whiteSpace=wrap;rounded=0;" parent="42" vertex="1">
                    <mxGeometry x="50" y="14" width="100" height="20" as="geometry"/>
                </mxCell>
                <mxCell id="46" value="Item description" style="text;html=1;strokeColor=none;fillColor=none;align=left;verticalAlign=middle;whiteSpace=wrap;rounded=0;" parent="42" vertex="1">
                    <mxGeometry x="70" y="34" width="350" height="20" as="geometry"/>
                </mxCell>
                <mxCell id="47" value="Start Bid&lt;br&gt;$X.xx" style="text;html=1;strokeColor=none;fillColor=none;align=center;verticalAlign=middle;whiteSpace=wrap;rounded=0;" parent="42" vertex="1">
                    <mxGeometry x="290" y="20" width="60" height="30" as="geometry"/>
                </mxCell>
                <mxCell id="48" value="# bids" style="text;html=1;strokeColor=none;fillColor=none;align=center;verticalAlign=middle;whiteSpace=wrap;rounded=0;" parent="42" vertex="1">
                    <mxGeometry x="359" y="24" width="60" height="30" as="geometry"/>
                </mxCell>
                <mxCell id="49" value="Link to product" style="text;html=1;strokeColor=none;fillColor=none;align=center;verticalAlign=middle;whiteSpace=wrap;rounded=0;" parent="42" vertex="1">
                    <mxGeometry x="422" y="23" width="90" height="30" as="geometry"/>
                </mxCell>
                <mxCell id="50" value="" style="rounded=0;whiteSpace=wrap;html=1;" parent="42" vertex="1">
                    <mxGeometry x="532" y="20" width="60" height="30" as="geometry"/>
                </mxCell>
                <mxCell id="51" value="Bid Amount" style="text;html=1;strokeColor=none;fillColor=none;align=center;verticalAlign=middle;whiteSpace=wrap;rounded=0;fontSize=10;" parent="42" vertex="1">
                    <mxGeometry x="524" y="20" width="80" height="30" as="geometry"/>
                </mxCell>
                <mxCell id="52" value="Place Bid" style="rounded=1;whiteSpace=wrap;html=1;fontSize=10;" parent="42" vertex="1">
                    <mxGeometry x="610" y="23" width="70" height="24" as="geometry"/>
                </mxCell>
                <mxCell id="53" value="" style="endArrow=none;html=1;fontSize=10;" parent="42" edge="1">
                    <mxGeometry width="50" height="50" relative="1" as="geometry">
                        <mxPoint x="11" as="sourcePoint"/>
                        <mxPoint x="681" as="targetPoint"/>
                    </mxGeometry>
                </mxCell>
                <mxCell id="54" value="Log In/Out" style="text;html=1;strokeColor=none;fillColor=none;align=center;verticalAlign=middle;whiteSpace=wrap;rounded=0;fontSize=10;" parent="1" vertex="1">
                    <mxGeometry x="630" y="5" width="60" height="30" as="geometry"/>
                </mxCell>
                <mxCell id="55" value="Admin" style="text;html=1;strokeColor=none;fillColor=none;align=center;verticalAlign=middle;whiteSpace=wrap;rounded=0;fontSize=10;" parent="1" vertex="1">
                    <mxGeometry x="710" y="5" width="60" height="30" as="geometry"/>
                </mxCell>
            </root>
        </mxGraphModel>
    </diagram>
</mxfile>